# xmcd CD database file
#
# Track frame offsets:
#	150
#	75270
#	239393
#	278697
#
# Disc length: 4104 seconds
#
# Revision: 0
# Processed by: cddbd v1.5.1PL0 Copyright (c) Steve Scherf et al.
# Submitted via: CDex 1.51
#
DISCID=24100604
DTITLE=Satoko Fujii Four - Live in Japan 2004
DYEAR=2004
DGENRE=Jazz
TTITLE0=Ninepin
TTITLE1=Illusion Suite
TTITLE2=Looking Out of the Window
TTITLE3=An Insane Scheme
EXTD=YEAR: 2004
EXTT0=
EXTT1=
EXTT2=
EXTT3=
PLAYORDER=
